<svg width="40" height="40" xmlns="http://www.w3.org/2000/svg">

 <g>
  <title>background</title>
  <rect fill="none" id="canvas_background" height="402" width="582" y="-1" x="-1"/>
 </g>
 <g>
  <title>Layer 1</title>
  <path stroke="null" fill="#ffffff" id="svg_2" d="m25.224463,32.694422c-0.42522,0 -0.708699,-0.14174 -0.992179,-0.42522l-11.339187,-11.339187c-0.566959,-0.566959 -0.566959,-1.417398 0,-1.984358l11.339187,-11.339187c0.566959,-0.566959 1.417398,-0.566959 1.984358,0s0.566959,1.417398 0,1.984358l-10.347009,10.347009l10.347009,10.347009c0.566959,0.566959 0.566959,1.417398 0,1.984358c-0.28348,0.28348 -0.708699,0.42522 -0.992179,0.42522z"/>
  <path fill="#ffffff" id="svg_4" d="m20,40c-11,0 -20,-9 -20,-20s9,-20 20,-20c4.5,0 8.7,1.5 12.3,4.2c0.4,0.3 0.5,1 0.2,1.4c-0.3,0.4 -1,0.5 -1.4,0.2c-3.2,-2.5 -7.1,-3.8 -11.1,-3.8c-9.9,0 -18,8.1 -18,18s8.1,18 18,18s18,-8.1 18,-18c0,-3.2 -0.9,-6.4 -2.5,-9.2c-0.3,-0.5 -0.1,-1.1 0.3,-1.4c0.5,-0.3 1.1,-0.1 1.4,0.3c1.8,3.2 2.8,6.7 2.8,10.3c0,11 -9,20 -20,20z"/>
 </g>
</svg>